<svg width="41" height="40" viewBox="0 0 41 40" fill="none" xmlns="http://www.w3.org/2000/svg">
<circle cx="20.5" cy="20" r="18.5" stroke="white" stroke-width="3"/>
<path d="M27.112 12.1311C26.7787 12.1311 26.459 12.2635 26.2233 12.4992C25.9876 12.7349 25.8552 13.0546 25.8552 13.3879V22.9273L15.4361 12.4956C15.1994 12.2589 14.8784 12.126 14.5437 12.126C14.209 12.126 13.888 12.2589 13.6514 12.4956C13.4147 12.7323 13.2817 13.0533 13.2817 13.3879C13.2817 13.7226 13.4147 14.0436 13.6514 14.2803L24.0831 24.6994H14.5437C14.2104 24.6994 13.8907 24.8318 13.655 25.0675C13.4193 25.3032 13.2869 25.6229 13.2869 25.9563C13.2869 26.2896 13.4193 26.6093 13.655 26.845C13.8907 27.0807 14.2104 27.2131 14.5437 27.2131H27.112C27.2763 27.2111 27.4385 27.1769 27.5896 27.1125C27.8967 26.985 28.1408 26.741 28.2683 26.4338C28.3327 26.2828 28.3669 26.1205 28.3688 25.9563V13.3879C28.3688 13.0546 28.2364 12.7349 28.0007 12.4992C27.765 12.2635 27.4453 12.1311 27.112 12.1311Z" fill="white"/>
</svg>
